<?xml version="1.0" standalone="no"?>
<!DOCTYPE svg PUBLIC "-//W3C//DTD SVG 20010904//EN"
 "http://www.w3.org/TR/2001/REC-SVG-20010904/DTD/svg10.dtd">
<svg version="1.0" xmlns="http://www.w3.org/2000/svg"
 width="512.000000pt" height="512.000000pt" viewBox="0 0 512.000000 512.000000"
 preserveAspectRatio="xMidYMid meet">
<metadata>
Created by potrace 1.14, written by Peter Selinger 2001-2017
</metadata>
<g transform="translate(0.000000,512.000000) scale(0.100000,-0.100000)"
fill="#000000" stroke="none">
<path d="M555 4856 c-148 -37 -262 -155 -294 -304 -16 -75 -16 -3909 0 -3984
33 -153 154 -274 307 -307 75 -16 3909 -16 3984 0 153 33 274 154 307 307 16
75 16 3909 0 3984 -33 153 -154 274 -307 307 -80 17 -3928 14 -3997 -3z m717
-925 c19 -13 46 -40 59 -59 l24 -36 5 -1100 c5 -1170 3 -1130 53 -1158 17 -10
295 -14 1323 -18 l1300 -5 36 -24 c63 -44 83 -84 83 -171 0 -87 -20 -127 -83
-171 l-36 -24 -1350 0 -1351 0 -57 23 c-125 51 -239 165 -290 290 l-23 57 -3
1130 c-2 751 0 1142 7 1165 12 41 63 97 106 117 48 21 155 13 197 -16z m2564
-382 c38 -12 93 -64 110 -106 19 -43 18 -125 -1 -170 -22 -53 -834 -866 -893
-894 -52 -26 -122 -27 -176 -5 -26 11 -105 81 -228 203 l-188 187 -288 -287
c-185 -184 -302 -292 -325 -302 -45 -19 -127 -19 -170 -1 -69 29 -118 103
-119 181 -2 93 1 96 396 493 254 255 385 379 414 393 52 26 122 27 176 5 26
-11 105 -81 228 -203 l188 -187 343 341 c339 338 353 349 432 366 22 5 54 0
101 -14z"/>
</g>
</svg>
